<svg xmlns="http://www.w3.org/2000/svg" width="900" height="520" viewBox="0 0 900 520">
<rect x="0" y="0" width="100%" height="100%" fill="white"/>
<text x="450.0" y="32" text-anchor="middle" font-family="Inter, Arial, sans-serif" font-size="18" fill="#111">FID vs Epoch (CGAN Training)</text>
<text x="450.0" y="52" text-anchor="middle" font-family="Inter, Arial, sans-serif" font-size="12" fill="#555">Lower is better</text>
<line x1="80" y1="562.18" x2="870" y2="562.18" stroke="#eee" stroke-width="1"/>
<text x="70" y="566.18" text-anchor="end" font-family="Inter, Arial, sans-serif" font-size="11" fill="#444">160</text>
<line x1="80" y1="442.25" x2="870" y2="442.25" stroke="#eee" stroke-width="1"/>
<text x="70" y="446.25" text-anchor="end" font-family="Inter, Arial, sans-serif" font-size="11" fill="#444">170</text>
<line x1="80" y1="322.31" x2="870" y2="322.31" stroke="#eee" stroke-width="1"/>
<text x="70" y="326.31" text-anchor="end" font-family="Inter, Arial, sans-serif" font-size="11" fill="#444">180</text>
<line x1="80" y1="202.38" x2="870" y2="202.38" stroke="#eee" stroke-width="1"/>
<text x="70" y="206.38" text-anchor="end" font-family="Inter, Arial, sans-serif" font-size="11" fill="#444">190</text>
<line x1="80" y1="82.44" x2="870" y2="82.44" stroke="#eee" stroke-width="1"/>
<text x="70" y="86.44" text-anchor="end" font-family="Inter, Arial, sans-serif" font-size="11" fill="#444">200</text>
<line x1="80" y1="-37.49" x2="870" y2="-37.49" stroke="#eee" stroke-width="1"/>
<text x="70" y="-33.49" text-anchor="end" font-family="Inter, Arial, sans-serif" font-size="11" fill="#444">210</text>
<line x1="38.42" y1="60" x2="38.42" y2="450" stroke="#f3f3f3" stroke-width="1"/>
<text x="38.42" y="472" text-anchor="middle" font-family="Inter, Arial, sans-serif" font-size="11" fill="#444">0</text>
<line x1="246.32" y1="60" x2="246.32" y2="450" stroke="#f3f3f3" stroke-width="1"/>
<text x="246.32" y="472" text-anchor="middle" font-family="Inter, Arial, sans-serif" font-size="11" fill="#444">50</text>
<line x1="454.21" y1="60" x2="454.21" y2="450" stroke="#f3f3f3" stroke-width="1"/>
<text x="454.21" y="472" text-anchor="middle" font-family="Inter, Arial, sans-serif" font-size="11" fill="#444">100</text>
<line x1="662.11" y1="60" x2="662.11" y2="450" stroke="#f3f3f3" stroke-width="1"/>
<text x="662.11" y="472" text-anchor="middle" font-family="Inter, Arial, sans-serif" font-size="11" fill="#444">150</text>
<line x1="870.00" y1="60" x2="870.00" y2="450" stroke="#f3f3f3" stroke-width="1"/>
<text x="870.00" y="472" text-anchor="middle" font-family="Inter, Arial, sans-serif" font-size="11" fill="#444">200</text>
<line x1="80" y1="60" x2="80" y2="450" stroke="#222" stroke-width="1.2"/>
<line x1="80" y1="450" x2="870" y2="450" stroke="#222" stroke-width="1.2"/>
<text x="450.0" y="496" text-anchor="middle" font-family="Inter, Arial, sans-serif" font-size="13" fill="#111">Epoch</text>
<text x="22" y="260.0" text-anchor="middle" font-family="Inter, Arial, sans-serif" font-size="13" fill="#111" transform="rotate(-90 22 260.0)">FID</text>
<polyline fill="none" stroke="#1976D2" stroke-width="2.5" points="80.00,77.73 121.58,267.40 163.16,352.18 204.74,432.27 246.32,189.25 287.89,311.13 329.47,274.57 371.05,322.83 412.63,394.04 454.21,388.04 495.79,356.69 537.37,282.37 578.95,313.26 620.53,248.37 662.11,279.00 703.68,259.91 745.26,247.92 786.84,364.84 828.42,273.40 870.00,360.83"/>
<circle cx="80.00" cy="77.73" r="2.6" fill="#1976D2" opacity="0.7"/>
<circle cx="121.58" cy="267.40" r="2.6" fill="#1976D2" opacity="0.7"/>
<circle cx="163.16" cy="352.18" r="2.6" fill="#1976D2" opacity="0.7"/>
<circle cx="204.74" cy="432.27" r="2.6" fill="#1976D2" opacity="0.7"/>
<circle cx="246.32" cy="189.25" r="2.6" fill="#1976D2" opacity="0.7"/>
<circle cx="287.89" cy="311.13" r="2.6" fill="#1976D2" opacity="0.7"/>
<circle cx="329.47" cy="274.57" r="2.6" fill="#1976D2" opacity="0.7"/>
<circle cx="371.05" cy="322.83" r="2.6" fill="#1976D2" opacity="0.7"/>
<circle cx="412.63" cy="394.04" r="2.6" fill="#1976D2" opacity="0.7"/>
<circle cx="454.21" cy="388.04" r="2.6" fill="#1976D2" opacity="0.7"/>
<circle cx="495.79" cy="356.69" r="2.6" fill="#1976D2" opacity="0.7"/>
<circle cx="537.37" cy="282.37" r="2.6" fill="#1976D2" opacity="0.7"/>
<circle cx="578.95" cy="313.26" r="2.6" fill="#1976D2" opacity="0.7"/>
<circle cx="620.53" cy="248.37" r="2.6" fill="#1976D2" opacity="0.7"/>
<circle cx="662.11" cy="279.00" r="2.6" fill="#1976D2" opacity="0.7"/>
<circle cx="703.68" cy="259.91" r="2.6" fill="#1976D2" opacity="0.7"/>
<circle cx="745.26" cy="247.92" r="2.6" fill="#1976D2" opacity="0.7"/>
<circle cx="786.84" cy="364.84" r="2.6" fill="#1976D2" opacity="0.7"/>
<circle cx="828.42" cy="273.40" r="2.6" fill="#1976D2" opacity="0.7"/>
<circle cx="870.00" cy="360.83" r="2.6" fill="#1976D2" opacity="0.7"/>
<circle cx="204.74" cy="432.27" r="5.2" fill="#D32F2F"/>
<text x="214.74" y="422.27" font-family="Inter, Arial, sans-serif" font-size="12" fill="#D32F2F">best: epoch 40, FID 170.83</text>
</svg>