<svg xmlns="http://www.w3.org/2000/svg" width="900" height="520" viewBox="0 0 900 520">
<rect x="0" y="0" width="100%" height="100%" fill="white"/>
<text x="450.0" y="32" text-anchor="middle" font-family="Inter, Arial, sans-serif" font-size="18" fill="#111">FID vs Epoch (CGAN Training)</text>
<text x="450.0" y="52" text-anchor="middle" font-family="Inter, Arial, sans-serif" font-size="12" fill="#555">Lower is better</text>
<line x1="80" y1="551.47" x2="870" y2="551.47" stroke="#eee" stroke-width="1"/>
<text x="70" y="555.47" text-anchor="end" font-family="Inter, Arial, sans-serif" font-size="11" fill="#444">120</text>
<line x1="80" y1="449.41" x2="870" y2="449.41" stroke="#eee" stroke-width="1"/>
<text x="70" y="453.41" text-anchor="end" font-family="Inter, Arial, sans-serif" font-size="11" fill="#444">140</text>
<line x1="80" y1="347.35" x2="870" y2="347.35" stroke="#eee" stroke-width="1"/>
<text x="70" y="351.35" text-anchor="end" font-family="Inter, Arial, sans-serif" font-size="11" fill="#444">160</text>
<line x1="80" y1="245.29" x2="870" y2="245.29" stroke="#eee" stroke-width="1"/>
<text x="70" y="249.29" text-anchor="end" font-family="Inter, Arial, sans-serif" font-size="11" fill="#444">180</text>
<line x1="80" y1="143.23" x2="870" y2="143.23" stroke="#eee" stroke-width="1"/>
<text x="70" y="147.23" text-anchor="end" font-family="Inter, Arial, sans-serif" font-size="11" fill="#444">200</text>
<line x1="80" y1="41.16" x2="870" y2="41.16" stroke="#eee" stroke-width="1"/>
<text x="70" y="45.16" text-anchor="end" font-family="Inter, Arial, sans-serif" font-size="11" fill="#444">220</text>
<line x1="38.42" y1="60" x2="38.42" y2="450" stroke="#f3f3f3" stroke-width="1"/>
<text x="38.42" y="472" text-anchor="middle" font-family="Inter, Arial, sans-serif" font-size="11" fill="#444">0</text>
<line x1="246.32" y1="60" x2="246.32" y2="450" stroke="#f3f3f3" stroke-width="1"/>
<text x="246.32" y="472" text-anchor="middle" font-family="Inter, Arial, sans-serif" font-size="11" fill="#444">50</text>
<line x1="454.21" y1="60" x2="454.21" y2="450" stroke="#f3f3f3" stroke-width="1"/>
<text x="454.21" y="472" text-anchor="middle" font-family="Inter, Arial, sans-serif" font-size="11" fill="#444">100</text>
<line x1="662.11" y1="60" x2="662.11" y2="450" stroke="#f3f3f3" stroke-width="1"/>
<text x="662.11" y="472" text-anchor="middle" font-family="Inter, Arial, sans-serif" font-size="11" fill="#444">150</text>
<line x1="870.00" y1="60" x2="870.00" y2="450" stroke="#f3f3f3" stroke-width="1"/>
<text x="870.00" y="472" text-anchor="middle" font-family="Inter, Arial, sans-serif" font-size="11" fill="#444">200</text>
<line x1="80" y1="60" x2="80" y2="450" stroke="#222" stroke-width="1.2"/>
<line x1="80" y1="450" x2="870" y2="450" stroke="#222" stroke-width="1.2"/>
<text x="450.0" y="496" text-anchor="middle" font-family="Inter, Arial, sans-serif" font-size="13" fill="#111">Epoch</text>
<text x="22" y="260.0" text-anchor="middle" font-family="Inter, Arial, sans-serif" font-size="13" fill="#111" transform="rotate(-90 22 260.0)">FID</text>
<polyline fill="none" stroke="#1976D2" stroke-width="2.5" points="80.00,77.73 121.58,151.35 163.16,236.25 204.74,293.76 246.32,195.08 287.89,209.91 329.47,204.28 371.05,278.72 412.63,356.67 454.21,398.51 495.79,368.08 537.37,334.16 578.95,399.12 620.53,432.27 662.11,397.67 703.68,352.35 745.26,373.64 786.84,355.72 828.42,377.09 870.00,382.38"/>
<circle cx="80.00" cy="77.73" r="2.6" fill="#1976D2" opacity="0.7"/>
<circle cx="121.58" cy="151.35" r="2.6" fill="#1976D2" opacity="0.7"/>
<circle cx="163.16" cy="236.25" r="2.6" fill="#1976D2" opacity="0.7"/>
<circle cx="204.74" cy="293.76" r="2.6" fill="#1976D2" opacity="0.7"/>
<circle cx="246.32" cy="195.08" r="2.6" fill="#1976D2" opacity="0.7"/>
<circle cx="287.89" cy="209.91" r="2.6" fill="#1976D2" opacity="0.7"/>
<circle cx="329.47" cy="204.28" r="2.6" fill="#1976D2" opacity="0.7"/>
<circle cx="371.05" cy="278.72" r="2.6" fill="#1976D2" opacity="0.7"/>
<circle cx="412.63" cy="356.67" r="2.6" fill="#1976D2" opacity="0.7"/>
<circle cx="454.21" cy="398.51" r="2.6" fill="#1976D2" opacity="0.7"/>
<circle cx="495.79" cy="368.08" r="2.6" fill="#1976D2" opacity="0.7"/>
<circle cx="537.37" cy="334.16" r="2.6" fill="#1976D2" opacity="0.7"/>
<circle cx="578.95" cy="399.12" r="2.6" fill="#1976D2" opacity="0.7"/>
<circle cx="620.53" cy="432.27" r="2.6" fill="#1976D2" opacity="0.7"/>
<circle cx="662.11" cy="397.67" r="2.6" fill="#1976D2" opacity="0.7"/>
<circle cx="703.68" cy="352.35" r="2.6" fill="#1976D2" opacity="0.7"/>
<circle cx="745.26" cy="373.64" r="2.6" fill="#1976D2" opacity="0.7"/>
<circle cx="786.84" cy="355.72" r="2.6" fill="#1976D2" opacity="0.7"/>
<circle cx="828.42" cy="377.09" r="2.6" fill="#1976D2" opacity="0.7"/>
<circle cx="870.00" cy="382.38" r="2.6" fill="#1976D2" opacity="0.7"/>
<circle cx="620.53" cy="432.27" r="5.2" fill="#D32F2F"/>
<text x="630.53" y="422.27" font-family="Inter, Arial, sans-serif" font-size="12" fill="#D32F2F">best: epoch 140, FID 143.36</text>
</svg>